<svg width="266" height="209" viewBox="0 0 266 209" fill="none" xmlns="http://www.w3.org/2000/svg">
<path d="M264.467 47.2554L233.647 144.326C231.342 151.239 225.293 155.848 218.092 155.848H99.1304C92.2174 155.848 85.5924 151.527 83.288 145.19L37.7772 23.3478H11.5652C5.22824 23.3478 0.043457 18.163 0.043457 11.8261C0.5 6 5.5 2.5 11.5652 1.5L45.8424 0.304334C50.7391 0.304334 55.0598 3.47281 56.788 8.08151L103.739 132.804H213.196L251 36.8859C255.5 33.5598 262.196 35.6793 264.5 38.5598C266.804 41.4402 265.62 43.7989 264.467 47.2554ZM104.891 171.114C99.9945 171.114 95.0978 173.13 91.6413 176.587C88.1848 180.043 86.1685 184.94 86.1685 189.837C86.1685 194.734 88.1848 199.63 91.6413 203.087C95.0978 206.543 99.9945 208.56 104.891 208.56C109.788 208.56 114.685 206.543 118.141 203.087C121.598 199.63 123.614 194.734 123.614 189.837C123.614 184.94 121.598 180.043 118.141 176.587C114.685 173.13 109.788 171.114 104.891 171.114ZM208.299 171.114C203.402 171.114 198.505 173.13 195.049 176.587C191.592 180.043 189.576 184.94 189.576 189.837C189.576 194.734 191.592 199.63 195.049 203.087C198.505 206.543 203.402 208.56 208.299 208.56C213.196 208.56 218.092 206.543 221.549 203.087C225.005 199.63 227.022 194.734 227.022 189.837C227.022 184.94 225.005 180.043 221.549 176.587C218.092 173.13 213.196 171.114 208.299 171.114Z" fill="white"/>
</svg>
